<?xml version="1.0" encoding="UTF-8"?>
<svg version="1.1" xmlns="http://www.w3.org/2000/svg" width="1550" height="1793">
<path d="M0 0 C7.63603351 6.88735704 14.21709048 14.39812897 20.59863281 22.44189453 C21.25476563 23.23080078 21.91089844 24.01970703 22.58691406 24.83251953 C60.78507277 71.06836694 77.07577549 132.62757837 71.91113281 191.87939453 C68.00123604 230.64883494 54.62256505 269.77242951 31.59863281 301.44189453 C30.91542969 302.39708984 30.23222656 303.35228516 29.52832031 304.33642578 C16.7308885 321.83542304 1.89952087 338.30078283 -15.40136719 351.44189453 C-15.95759766 351.86921875 -16.51382812 352.29654297 -17.08691406 352.73681641 C-26.14351059 359.6693903 -35.48091172 365.82161014 -45.40136719 371.44189453 C-45.99353027 371.78317383 -46.58569336 372.12445312 -47.19580078 372.47607422 C-70.73950298 385.97575531 -96.81014971 393.71236207 -123.40136719 398.44189453 C-124.14580078 398.57611816 -124.89023437 398.7103418 -125.65722656 398.84863281 C-182.73434382 408.55720467 -244.79475288 392.29939335 -291.84228516 359.48193359 C-297.58228682 355.39494828 -303.07139078 351.05228229 -308.40136719 346.44189453 C-309.1709375 345.78318359 -309.94050781 345.12447266 -310.73339844 344.44580078 C-323.52173402 333.22684635 -335.39468214 321.21427452 -345.40136719 307.44189453 C-346.54992187 305.87568359 -346.54992187 305.87568359 -347.72167969 304.27783203 C-362.14760708 284.02121621 -372.90005702 262.12948269 -380.40136719 238.44189453 C-380.63839355 237.70148926 -380.87541992 236.96108398 -381.11962891 236.19824219 C-398.97997726 179.43012568 -392.33408026 115.20279345 -365.40136719 62.44189453 C-358.1884218 48.96915148 -350.03102184 36.30603707 -340.40136719 24.44189453 C-339.91845215 23.84473633 -339.43553711 23.24757813 -338.93798828 22.63232422 C-328.36270612 9.67363121 -316.72581864 -2.4078504 -303.40136719 -12.55810547 C-302.83305176 -12.99219727 -302.26473633 -13.42628906 -301.67919922 -13.87353516 C-273.59379159 -35.21575664 -242.74672261 -49.66075368 -208.40136719 -57.55810547 C-207.67111328 -57.72681152 -206.94085937 -57.89551758 -206.18847656 -58.06933594 C-131.87709576 -74.7445226 -55.8786284 -49.56766835 0 0 Z " fill="#1263DE" transform="translate(918.4013671875,695.55810546875)"/>
<path d="M0 0 C1.04305231 0.92682836 2.08469021 1.85525063 3.125 2.78515625 C3.67671875 3.27516113 4.2284375 3.76516602 4.796875 4.27001953 C47.10906575 42.00890297 74.19185568 96.26282292 79.125 152.78515625 C79.28227606 155.98188755 79.33418394 159.17475968 79.36328125 162.375 C79.3730751 163.26875336 79.38286896 164.16250671 79.39295959 165.08334351 C79.56330087 184.66124833 79.46070684 203.59453906 75.125 222.78515625 C74.80354004 224.24888672 74.80354004 224.24888672 74.47558594 225.7421875 C69.96393454 245.78521524 62.84754949 264.70462563 53.125 282.78515625 C52.78388184 283.43258789 52.44276367 284.08001953 52.09130859 284.74707031 C35.77481221 315.61693912 11.65296346 342.70753762 -16.875 362.78515625 C-17.46458496 363.2140918 -18.05416992 363.64302734 -18.66162109 364.08496094 C-49.39314806 386.43990696 -86.37176304 399.16193432 -123.875 403.78515625 C-124.60412598 403.87941895 -125.33325195 403.97368164 -126.08447266 404.07080078 C-133.86998145 404.97391334 -141.67197833 405.0285686 -149.5 405.03515625 C-150.22498688 405.03583099 -150.94997375 405.03650574 -151.69692993 405.03720093 C-215.14655001 404.94405013 -271.93307199 378.77823899 -316.875 334.78515625 C-355.20975213 296.12040626 -379.54627801 240.26275804 -380.875 185.78515625 C-380.89546387 184.96934082 -380.91592773 184.15352539 -380.93701172 183.31298828 C-382.32531445 118.86591034 -359.27682906 59.26856808 -314.83203125 12.55078125 C-308.57754868 6.11047198 -301.95408891 0.31508166 -294.875 -5.21484375 C-293.90304687 -6.00375 -292.93109375 -6.79265625 -291.9296875 -7.60546875 C-283.07621941 -14.66161625 -273.66653226 -20.54919607 -263.875 -26.21484375 C-263.20017578 -26.61058594 -262.52535156 -27.00632812 -261.83007812 -27.4140625 C-236.54811262 -42.09714653 -207.79922551 -50.66246 -178.875 -54.21484375 C-178.16835205 -54.30910645 -177.4617041 -54.40336914 -176.73364258 -54.50048828 C-113.48743577 -62.01875082 -47.86197486 -41.92432409 0 0 Z " fill="#1263DE" transform="translate(909.875,61.21484375)"/>
<path d="M0 0 C0.8353125 0.60642334 0.8353125 0.60642334 1.6875 1.22509766 C9.38781778 6.84659701 16.58351203 12.95132139 23.47314453 19.54052734 C24.50315775 20.52508427 25.53812459 21.5044814 26.57763672 22.47900391 C35.83369583 31.17784207 43.63369769 40.66119862 51 51 C51.4120166 51.5779834 51.8240332 52.1559668 52.24853516 52.75146484 C72.15808518 81.16095911 84.94268908 115.41665182 88 150 C88.10957031 151.23621094 88.21914063 152.47242188 88.33203125 153.74609375 C92.74543036 211.23797279 74.75892696 266.05672038 37.50146484 309.92993164 C27.43208457 321.53056047 16.48644579 332.04107179 4 341 C3.33162109 341.48033691 2.66324219 341.96067383 1.97460938 342.45556641 C-32.67986886 367.0544862 -72.55656403 380.5395807 -115 382 C-116.51980469 382.061875 -116.51980469 382.061875 -118.0703125 382.125 C-161.89900508 383.04048183 -206.38211309 369.54596642 -242 344 C-242.58668457 343.58008789 -243.17336914 343.16017578 -243.77783203 342.72753906 C-252.04198853 336.73807118 -259.64024486 330.05787647 -267 323 C-267.79688232 322.24396484 -267.79688232 322.24396484 -268.60986328 321.47265625 C-276.90379571 313.57038858 -284.25212127 305.25752623 -291 296 C-291.61174072 295.17072998 -291.61174072 295.17072998 -292.23583984 294.32470703 C-313.15261763 265.63042314 -325.75721734 231.12550744 -330 196 C-330.13148438 194.91203125 -330.26296875 193.8240625 -330.3984375 192.703125 C-335.6899001 137.500299 -319.2539798 81.84202299 -284 39 C-281.23978941 35.80237899 -278.3816785 32.71102805 -275.47265625 29.6484375 C-273.70318605 27.75317558 -272.04378411 25.86872117 -270.40625 23.8671875 C-267.25876714 20.11677773 -263.7343244 17.14634032 -260 14 C-259.15824219 13.25878906 -258.31648438 12.51757812 -257.44921875 11.75390625 C-225.71644811 -15.67760364 -186.43532641 -31.81024604 -145 -37 C-144.01 -37.13148438 -143.02 -37.26296875 -142 -37.3984375 C-92.74349408 -42.69637564 -39.9653717 -29.41763882 0 0 Z " fill="#1263DE" transform="translate(331,383)"/>
<path d="M0 0 C42.99097248 38.71994201 69.31234607 90.19873237 72.61328125 148.29296875 C74.87196263 195.00460892 61.95093657 242.1769899 34.61328125 280.29296875 C34.19336914 280.87965332 33.77345703 281.46633789 33.34082031 282.07080078 C27.77079857 289.75621329 21.6304528 296.90942437 15.07275391 303.76611328 C14.08819698 304.7961265 13.10879985 305.83109334 12.13427734 306.87060547 C-24.39100431 345.73558488 -77.49022738 367.39107243 -130.38671875 369.29296875 C-131.98386719 369.35484375 -131.98386719 369.35484375 -133.61328125 369.41796875 C-190.16619195 370.49773793 -243.36800049 348.47539552 -284.15625 309.75 C-292.34280625 301.82401002 -299.74387725 293.5513843 -306.38671875 284.29296875 C-306.86705566 283.62458984 -307.34739258 282.95621094 -307.84228516 282.26757812 C-340.29219443 236.55277911 -353.40352697 180.75804842 -344.93017578 125.30517578 C-339.59972959 94.08545395 -327.88746838 64.08794543 -309.38671875 38.29296875 C-308.96680664 37.70628418 -308.54689453 37.11959961 -308.11425781 36.51513672 C-302.12570763 28.25224643 -295.43827895 20.6598612 -288.38671875 13.29296875 C-287.86625977 12.73996094 -287.34580078 12.18695313 -286.80957031 11.6171875 C-225.36829688 -53.45988156 -125.04685424 -67.5900746 0 0 Z " fill="#1263DE" transform="translate(1440.38671875,395.70703125)"/>
<path d="M0 0 C1.2375 1.13115234 1.2375 1.13115234 2.5 2.28515625 C4.46235514 4.05856841 6.45911409 5.75650245 8.5 7.4375 C12.36233038 10.73395407 15.55443826 14.49291434 18.8125 18.375 C19.575625 19.25027344 20.33875 20.12554688 21.125 21.02734375 C56.30497166 61.97902952 73.09887066 116.34012976 69.34790039 169.97851562 C64.91602314 225.08330259 39.62516776 275.51448076 -1.97753906 311.94238281 C-45.24689811 348.3504923 -100.27142558 365.15734664 -156.43554688 360.42431641 C-202.22011076 356.12422352 -244.85859189 337.11235913 -278.1875 305.375 C-278.77402344 304.82102539 -279.36054687 304.26705078 -279.96484375 303.69628906 C-293.8489555 290.50358932 -305.85076661 276.17085525 -315.1875 259.375 C-315.61272949 258.61203613 -316.03795898 257.84907227 -316.47607422 257.06298828 C-343.37674391 208.31788257 -350.68851395 152.14494383 -335.91796875 98.171875 C-331.58475867 83.21942476 -325.55825616 69.06511719 -318.1875 55.375 C-317.57390625 54.20839844 -316.9603125 53.04179688 -316.328125 51.83984375 C-304.05761851 29.35236594 -286.22954166 9.17942913 -266.1875 -6.625 C-265.176875 -7.44097656 -264.16625 -8.25695313 -263.125 -9.09765625 C-250.53790921 -19.14980625 -236.72493636 -26.76828149 -222.1875 -33.625 C-221.05957031 -34.15996094 -219.93164062 -34.69492188 -218.76953125 -35.24609375 C-146.73002069 -67.76099594 -58.32015355 -52.39224556 0 0 Z " fill="#1263DE" transform="translate(896.1875,1339.625)"/>
<path d="M0 0 C0.67933594 0.51691406 1.35867188 1.03382812 2.05859375 1.56640625 C18.58064564 14.83058875 29.65959189 36.65469839 32.68359375 57.4140625 C35.03472154 84.0601774 29.82749381 108.89406535 12.66796875 129.84765625 C10.50212123 132.29392014 8.27373672 134.65428279 6 137 C5.19369141 137.91652344 5.19369141 137.91652344 4.37109375 138.8515625 C-9.52441672 154.10528076 -32.04954505 162.41521566 -52.265625 163.3828125 C-79.26383628 164.10950514 -102.53875179 157.20070432 -122.62890625 138.33203125 C-123.41136719 137.56246094 -124.19382812 136.79289062 -125 136 C-125.77214844 135.24074219 -126.54429688 134.48148438 -127.33984375 133.69921875 C-143.73670099 116.5736123 -151.58908029 92.82436497 -151.35375977 69.38427734 C-150.64119706 47.37851524 -142.77818118 26.47532212 -128 10 C-127.18789062 9.09378906 -126.37578125 8.18757813 -125.5390625 7.25390625 C-92.55500302 -27.61633845 -36.76768009 -30.01568542 0 0 Z " fill="#1263DE" transform="translate(1367,1110)"/>
<path d="M0 0 C14.1590621 15.03714347 23.06779752 36.21708462 23.890625 56.890625 C23.9421875 57.67824219 23.99375 58.46585938 24.046875 59.27734375 C24.92742477 83.23563545 16.2257397 107.00163965 0.140625 124.703125 C-14.89171573 140.54368188 -35.71732938 152.79258535 -57.95507812 154.05175781 C-85.28493227 154.44270383 -107.71246363 150.06574284 -129.109375 131.890625 C-130.08519531 131.11460937 -131.06101563 130.33859375 -132.06640625 129.5390625 C-147.39892889 116.72501935 -157.79846848 94.54500165 -160.109375 74.890625 C-161.38932156 47.9532208 -156.95008524 24.04882268 -139.109375 2.890625 C-138.46484375 2.08882812 -137.8203125 1.28703125 -137.15625 0.4609375 C-122.29518703 -17.20721514 -100.22044556 -27.1937817 -77.546875 -29.984375 C-47.2783682 -31.53059903 -21.37575435 -21.37575435 0 0 Z " fill="#1263DE" transform="translate(279.109375,1119.109375)"/>

</svg>
